<svg width="22" height="22" viewBox="0 0 22 22" fill="none" xmlns="http://www.w3.org/2000/svg">
<path d="M20.5474 4H17.0255V1.8125C17.0255 0.847266 16.2359 0.0625 15.2646 0.0625H6.45991C5.48865 0.0625 4.69897 0.847266 4.69897 1.8125V4H1.1771C0.69009 4 0.296631 4.39102 0.296631 4.875V5.75C0.296631 5.87031 0.395684 5.96875 0.516748 5.96875H2.17863L2.85824 20.2695C2.90227 21.202 3.67818 21.9375 4.61643 21.9375H17.1081C18.0491 21.9375 18.8222 21.2047 18.8663 20.2695L19.5459 5.96875H21.2078C21.3288 5.96875 21.4279 5.87031 21.4279 5.75V4.875C21.4279 4.39102 21.0344 4 20.5474 4ZM15.0445 4H6.68003V2.03125H15.0445V4Z" fill="#B88E2F"/>
</svg>
