<svg width="29" height="28" viewBox="0 0 29 28" fill="none" xmlns="http://www.w3.org/2000/svg">
<path d="M23.8059 14V8.16663H26.1552V15.1666H23.8059M23.8059 19.8333H26.1552V17.5H23.8059M12.0595 15.1666C15.1958 15.1666 21.4566 16.73 21.4566 19.8333V23.3333H2.66248V19.8333C2.66248 16.73 8.92327 15.1666 12.0595 15.1666ZM12.0595 4.66663C13.3057 4.66663 14.5008 5.15829 15.3819 6.03346C16.2631 6.90863 16.7581 8.09562 16.7581 9.33329C16.7581 10.571 16.2631 11.758 15.3819 12.6331C14.5008 13.5083 13.3057 14 12.0595 14C10.8134 14 9.61833 13.5083 8.73718 12.6331C7.85603 11.758 7.36101 10.571 7.36101 9.33329C7.36101 8.09562 7.85603 6.90863 8.73718 6.03346C9.61833 5.15829 10.8134 4.66663 12.0595 4.66663ZM12.0595 17.3833C8.57088 17.3833 4.89428 19.0866 4.89428 19.8333V21.1166H19.2248V19.8333C19.2248 19.0866 15.5482 17.3833 12.0595 17.3833ZM12.0595 6.88329C11.4053 6.88329 10.7779 7.14142 10.3153 7.60088C9.8527 8.06034 9.59282 8.68351 9.59282 9.33329C9.59282 9.98307 9.8527 10.6062 10.3153 11.0657C10.7779 11.5252 11.4053 11.7833 12.0595 11.7833C12.7138 11.7833 13.3412 11.5252 13.8038 11.0657C14.2664 10.6062 14.5263 9.98307 14.5263 9.33329C14.5263 8.68351 14.2664 8.06034 13.8038 7.60088C13.3412 7.14142 12.7138 6.88329 12.0595 6.88329Z" fill="black"/>
</svg>
